<svg version="1.1" id="Layer_1" xmlns="http://www.w3.org/2000/svg" xmlns:xlink="http://www.w3.org/1999/xlink" x="0px" y="0px"
	 width="100%" viewBox="0 0 1394 246" enable-background="new 0 0 1394 246" xml:space="preserve">
<path fill="#FEFFFE" opacity="1.000000" stroke="none" 
	d="
M1034.000000,247.000000 
	C689.333435,247.000000 345.166870,247.000000 1.000231,247.000000 
	C1.000154,165.000122 1.000154,83.000252 1.000077,1.000286 
	C465.666382,1.000190 930.332764,1.000190 1394.999268,1.000095 
	C1394.999512,82.999710 1394.999512,164.999420 1394.999756,246.999573 
	C1274.833374,247.000000 1154.666626,247.000000 1034.000000,247.000000 
M625.313721,96.499939 
	C624.883911,129.456863 624.496521,162.414444 623.973206,195.369888 
	C623.904053,199.726303 623.992676,203.698593 629.634033,203.778870 
	C640.958801,203.940018 652.288269,203.972260 663.612854,203.829742 
	C667.157471,203.785126 668.500488,201.785675 667.485474,198.077179 
	C666.303101,193.757782 664.870728,189.326279 664.783081,184.918854 
	C664.389038,165.109482 664.373657,145.291290 664.403870,125.476570 
	C664.407288,123.250221 665.563538,121.025642 666.568420,117.427994 
	C668.443420,119.951248 669.448120,121.016449 670.126648,122.259651 
	C680.016907,140.378967 689.910522,158.496796 699.696594,176.672455 
	C703.405029,183.560242 706.420349,190.861954 710.597351,197.437775 
	C712.411987,200.294495 716.245117,203.396896 719.360779,203.621338 
	C729.967224,204.385498 740.662720,203.966980 751.323547,203.894577 
	C755.280090,203.867722 756.997559,202.411285 755.658264,197.920822 
	C752.386169,186.950409 750.560120,175.848984 750.756714,164.190277 
	C751.279053,133.214233 750.722778,102.221245 751.064514,71.240181 
	C751.172058,61.491173 752.772217,51.759071 753.676697,42.018070 
	C753.872437,39.909672 754.014343,37.796276 754.230774,35.056507 
	C740.784607,35.056507 727.841919,34.928188 714.912659,35.284214 
	C713.799866,35.314857 711.805481,38.604427 711.891479,40.295116 
	C712.152161,45.417793 713.825867,50.490978 713.892273,55.597183 
	C714.152100,75.584053 714.051819,95.576469 713.932922,115.565918 
	C713.921936,117.412605 712.831421,119.252869 711.844727,122.339371 
	C709.389771,119.147713 707.617859,117.361053 706.453918,115.240631 
	C701.574463,106.351021 696.780579,97.411163 692.134644,88.397331 
	C684.278625,73.155502 676.471741,57.886860 668.823181,42.540291 
	C665.731628,36.337193 661.229980,33.323711 654.139832,33.635841 
	C646.325562,33.979847 638.484192,33.674572 630.655212,33.729351 
	C622.935181,33.783367 622.334106,34.773277 623.381042,42.204460 
	C624.328979,48.932499 625.053284,55.732582 625.238464,62.518311 
	C625.538330,73.504684 625.315918,84.505318 625.313721,96.499939 
M1064.872681,104.456749 
	C1062.297363,127.752663 1066.097778,149.965851 1077.051880,170.682556 
	C1085.361938,186.398941 1098.345093,196.728165 1115.418701,202.151245 
	C1126.590942,205.699875 1138.022461,205.884033 1149.457520,205.745895 
	C1156.389526,205.662155 1163.470215,204.949768 1170.198364,203.331650 
	C1190.685181,198.404541 1204.960693,185.256271 1213.900513,166.753387 
	C1227.430176,138.751282 1228.329956,109.283455 1218.665649,80.256592 
	C1212.023682,60.307625 1198.925781,44.472271 1178.351440,36.412441 
	C1164.287964,30.903154 1149.813965,29.103424 1134.778076,30.818007 
	C1109.996948,33.643852 1090.879272,45.562584 1077.501831,66.419884 
	C1070.283325,77.674583 1067.913086,90.777542 1064.872681,104.456749 
M299.070404,120.563591 
	C299.774658,119.634384 300.418701,118.651505 301.192047,117.783920 
	C315.894318,101.290527 314.527802,65.931389 294.733032,49.244190 
	C283.136414,39.468121 269.402588,34.834263 254.755417,34.241261 
	C232.796448,33.352230 210.779251,33.963284 188.788956,33.732315 
	C184.670944,33.689068 183.598770,35.401417 183.820923,39.072571 
	C184.373535,48.204983 185.150864,57.343815 185.196609,66.483284 
	C185.360901,99.308540 185.349686,132.135574 185.190079,164.960892 
	C185.153854,172.411041 184.267944,179.857880 183.746674,187.304398 
	C183.526962,190.442993 183.243164,193.577164 182.980423,196.712662 
	C182.650696,200.647690 184.637085,202.813675 188.392410,202.951691 
	C199.690598,203.366943 210.995392,203.703400 222.299652,203.784271 
	C225.326874,203.805954 226.816849,202.158432 226.298248,198.485580 
	C222.694504,172.962982 224.044235,147.311325 224.688080,121.684273 
	C224.716507,120.553436 224.932297,119.427299 225.053711,118.361313 
	C230.232590,116.519547 230.416397,120.803108 231.321548,123.391014 
	C239.880508,147.861649 250.802170,171.552109 255.872620,197.180664 
	C256.608582,200.900543 258.556030,203.180878 262.589783,203.224472 
	C276.729218,203.377258 290.868439,203.557541 305.008179,203.669495 
	C305.559235,203.673859 306.115021,203.084564 307.098175,202.529251 
	C306.129608,200.476379 305.545380,198.320068 304.278809,196.695892 
	C291.836823,180.741348 285.620300,161.878952 279.182556,143.139877 
	C276.739441,136.028412 277.336884,134.982407 284.411316,131.673599 
	C289.892242,129.110092 295.264099,126.495087 299.070404,120.563591 
M897.962097,84.520264 
	C893.343506,100.509064 891.029907,116.712814 893.161255,133.377090 
	C894.838928,146.494019 897.101196,159.675140 903.868286,171.060974 
	C914.851257,189.540115 931.940613,200.263641 952.953491,203.755890 
	C962.847961,205.400299 973.294067,206.059677 983.200378,204.830399 
	C1006.415649,201.949585 1027.465210,194.148697 1038.898071,171.402969 
	C1042.613159,164.011963 1045.680298,156.173767 1048.014648,148.237381 
	C1052.022705,134.611008 1050.432861,120.513016 1050.425171,106.537857 
	C1050.409180,77.667244 1032.195801,42.144375 993.229126,34.310280 
	C973.927734,30.429810 955.471741,30.972578 937.443909,38.442543 
	C916.954407,46.932575 904.957825,63.186123 897.962097,84.520264 
M501.209961,49.682903 
	C492.513367,57.146454 485.206390,65.787224 480.144989,76.081314 
	C469.213989,98.313156 468.876343,121.421059 474.529144,145.122147 
	C480.089783,168.436890 494.373627,184.640717 514.842102,195.921982 
	C534.830139,206.938446 556.395691,205.742020 577.686951,202.152710 
	C586.777039,200.620285 595.533325,196.032593 603.928223,191.812531 
	C610.001831,188.759415 612.134216,182.926437 609.929565,176.006073 
	C608.514526,171.564514 607.474548,166.999359 605.956787,162.596359 
	C605.134338,160.210480 603.662903,158.048325 602.224487,155.286438 
	C599.000305,157.769348 596.485535,159.642899 594.038086,161.600662 
	C573.115173,178.337250 542.179199,177.257324 523.538208,159.123611 
	C515.056702,150.872910 516.372803,140.003540 526.643127,134.190994 
	C528.654236,133.052780 530.839722,132.059845 533.070190,131.498627 
	C546.301453,128.169632 559.399658,127.999413 572.259949,133.366928 
	C575.713379,134.808273 579.349487,135.811859 583.611023,137.256897 
	C585.131104,125.457069 585.515076,114.553978 583.619629,103.707100 
	C583.285156,101.792953 581.050293,99.820061 579.206116,98.627213 
	C570.562378,93.036407 560.887024,92.493347 551.255798,94.616447 
	C534.161987,98.384598 522.440002,108.523254 517.140198,125.542152 
	C515.841064,129.713943 514.427124,133.849991 512.898071,138.514740 
	C511.909088,137.413315 511.490601,137.097183 511.277679,136.676910 
	C510.903229,135.938004 510.538666,135.159561 510.370667,134.355743 
	C508.173981,123.846626 506.388397,113.100792 509.807404,102.746239 
	C512.423828,94.822403 515.216980,85.827553 520.850586,80.265961 
	C532.358582,68.905159 547.279236,64.004845 563.873413,65.356316 
	C576.212219,66.361198 587.109009,70.617722 596.849426,78.272995 
	C601.202393,81.694176 603.572266,80.885941 605.439209,75.709587 
	C607.357666,70.390488 609.099915,64.976059 610.418152,59.483086 
	C611.348206,55.607552 611.978210,51.085617 607.885742,48.553734 
	C601.002136,44.295094 594.217651,39.155312 586.642029,36.862972 
	C556.621826,27.778992 527.469055,27.455444 501.209961,49.682903 
M437.066681,101.757225 
	C435.463409,100.347427 434.085815,98.408997 432.220642,97.612602 
	C418.921326,91.933975 405.385406,91.989929 392.672913,98.669563 
	C378.632080,106.047173 371.634949,118.999107 368.067169,134.036270 
	C367.704132,135.566223 366.833221,136.975693 366.197998,138.441071 
	C365.680481,138.372818 365.162964,138.304550 364.645416,138.236282 
	C363.896210,134.217300 362.923462,130.225159 362.436981,126.174629 
	C360.474976,109.839104 363.058807,94.055092 373.670410,81.420242 
	C385.725525,67.066635 402.380737,62.138412 420.972534,64.384888 
	C432.002167,65.717621 441.668610,70.399590 450.455536,77.050171 
	C452.400421,78.522194 455.115143,80.136627 456.250061,77.062477 
	C458.971375,69.691353 461.299316,62.119125 462.942444,54.447380 
	C463.325806,52.657448 460.830200,49.412594 458.830231,48.108921 
	C453.020142,44.321690 447.148010,40.034737 440.655792,38.001122 
	C421.687317,32.059467 402.451782,29.823063 382.750916,35.769634 
	C355.837097,43.893379 337.740967,61.370781 328.367676,87.293709 
	C321.045868,107.543053 321.474152,128.605774 328.164886,149.066437 
	C334.187134,167.482803 343.805237,183.736221 361.329742,193.755127 
	C389.115417,209.640442 418.114044,208.277100 447.256805,198.616821 
	C452.614563,196.840851 457.349945,192.298950 461.499237,188.158508 
	C463.434082,186.227768 464.389038,181.994858 463.850098,179.175934 
	C462.674011,173.024170 460.335999,167.082962 458.317657,161.108124 
	C457.107361,157.525452 454.742371,157.107269 451.709167,159.160065 
	C448.124023,161.586380 444.567261,164.065308 440.878296,166.325806 
	C417.821686,180.454269 387.723511,172.408432 375.742554,157.809860 
	C369.414398,150.099091 370.580261,139.422882 379.387512,134.768707 
	C384.357391,132.142395 390.325256,130.539337 395.949219,130.193542 
	C408.238647,129.437912 420.610474,129.470108 432.267487,134.765793 
	C434.623718,135.836212 437.829651,135.936996 437.862549,132.236603 
	C437.950745,122.318626 437.574280,112.396515 437.066681,101.757225 
M155.212433,197.839081 
	C161.723267,193.270386 168.983688,189.366592 168.942764,179.723083 
	C168.868546,162.233871 169.049255,144.743408 168.943802,127.254555 
	C168.906219,121.021805 167.701111,119.479645 161.334427,119.247856 
	C153.882050,118.976555 146.386841,119.558838 138.923676,119.999138 
	C131.637360,120.428993 130.208008,121.969002 130.163498,129.118744 
	C130.088837,141.112289 130.188171,153.106979 130.099686,165.100342 
	C130.042557,172.844040 128.648468,174.111465 120.831558,174.960068 
	C107.761856,176.378937 95.645935,173.234070 85.636955,165.136871 
	C74.765076,156.341568 67.620178,144.541916 65.978775,130.369675 
	C65.122452,122.976044 65.247475,115.332504 66.020714,107.915634 
	C67.487961,93.841789 73.867180,81.797676 85.794701,74.188118 
	C99.483513,65.454872 114.936653,63.723114 131.014267,66.465034 
	C140.698563,68.116608 148.062881,73.587105 155.458145,79.313469 
	C159.935196,82.780167 161.378983,82.358391 163.248825,76.961594 
	C165.098953,71.621681 166.812988,66.230797 168.437744,60.817558 
	C170.757996,53.087002 169.945877,50.787647 163.081268,46.166286 
	C146.908493,35.278511 128.946701,30.953716 109.590630,31.616285 
	C70.270889,32.962219 42.050293,54.532185 31.200548,91.738846 
	C24.990063,113.036240 26.000845,134.474670 34.243259,155.340057 
	C42.885647,177.217972 57.489685,193.064575 80.099518,200.830414 
	C96.420212,206.436127 113.265160,206.153625 130.012268,204.215103 
	C138.312180,203.254395 146.374695,200.242569 155.212433,197.839081 
M1365.130737,81.372826 
	C1363.276855,66.984581 1355.287720,56.695438 1343.708984,48.570141 
	C1329.454956,38.567562 1313.631836,33.865997 1296.353394,33.768742 
	C1278.857300,33.670261 1261.360718,33.674614 1243.864258,33.674950 
	C1237.767212,33.675064 1236.444946,35.539528 1237.291382,41.650188 
	C1238.340210,49.221306 1239.707153,56.829952 1239.805054,64.436928 
	C1240.201050,95.257164 1240.358887,126.084114 1240.180420,156.906128 
	C1240.116089,168.013443 1238.893188,179.116257 1238.122314,190.215805 
	C1237.903931,193.361725 1237.375366,196.484909 1237.060913,199.625702 
	C1236.742432,202.807281 1238.143311,204.046432 1241.422241,203.995895 
	C1251.251221,203.844360 1261.084106,203.953934 1270.915405,203.945007 
	C1281.174927,203.935699 1281.399902,203.391769 1281.002441,193.305099 
	C1280.229126,173.682327 1279.697510,154.047424 1279.354492,134.412506 
	C1279.286377,130.505539 1280.511841,126.575981 1281.140869,122.656837 
	C1281.731812,122.620079 1282.322876,122.583313 1282.913940,122.546555 
	C1283.899536,123.977020 1285.082886,125.310661 1285.838623,126.853760 
	C1290.520996,136.414551 1294.903320,146.130463 1299.885742,155.529709 
	C1300.969604,157.574463 1303.995483,159.638321 1306.282227,159.828918 
	C1322.640991,161.192307 1336.921387,154.997253 1347.692871,143.591705 
	C1363.785156,126.552094 1371.198242,106.017227 1365.130737,81.372826 
M811.921997,114.500000 
	C812.908997,89.419296 809.793640,64.231293 813.974915,39.225273 
	C814.680603,35.004837 812.712463,32.635925 808.091858,32.687775 
	C796.934998,32.812969 785.775452,32.705742 774.618958,32.849331 
	C769.188721,32.919220 768.692322,33.830029 769.568481,39.209984 
	C770.740540,46.406986 772.548645,53.622746 772.647949,60.850185 
	C773.011902,87.329025 772.985474,113.818176 772.708801,140.299286 
	C772.492249,161.030869 774.473022,181.907257 769.000916,203.038910 
	C771.890564,203.365891 774.455261,203.904663 777.020874,203.908813 
	C811.000366,203.963928 844.979919,203.952652 878.959473,203.918411 
	C880.767151,203.916580 882.754456,203.963135 884.329285,203.255386 
	C885.789673,202.599121 887.812134,201.003998 887.864929,199.749863 
	C888.303589,189.323792 888.561279,178.876999 888.375244,168.445358 
	C888.316406,165.144485 885.945312,164.287766 882.600586,165.734863 
	C878.653748,167.442520 874.486206,169.529480 870.334900,169.720032 
	C852.884766,170.521042 835.402832,170.604401 817.937317,171.111908 
	C813.027649,171.254562 811.799011,169.008453 811.852905,164.469009 
	C812.047058,148.148041 811.924011,131.823303 811.921997,114.500000 
z"/>
<path fill="#39B773" opacity="1.000000" stroke="none" 
	d="
M625.313843,95.999939 
	C625.315918,84.505318 625.538330,73.504684 625.238464,62.518311 
	C625.053284,55.732582 624.328979,48.932499 623.381042,42.204460 
	C622.334106,34.773277 622.935181,33.783367 630.655212,33.729351 
	C638.484192,33.674572 646.325562,33.979847 654.139832,33.635841 
	C661.229980,33.323711 665.731628,36.337193 668.823181,42.540291 
	C676.471741,57.886860 684.278625,73.155502 692.134644,88.397331 
	C696.780579,97.411163 701.574463,106.351021 706.453918,115.240631 
	C707.617859,117.361053 709.389771,119.147713 711.844727,122.339371 
	C712.831421,119.252869 713.921936,117.412605 713.932922,115.565918 
	C714.051819,95.576469 714.152100,75.584053 713.892273,55.597183 
	C713.825867,50.490978 712.152161,45.417793 711.891479,40.295116 
	C711.805481,38.604427 713.799866,35.314857 714.912659,35.284214 
	C727.841919,34.928188 740.784607,35.056507 754.230774,35.056507 
	C754.014343,37.796276 753.872437,39.909672 753.676697,42.018070 
	C752.772217,51.759071 751.172058,61.491173 751.064514,71.240181 
	C750.722778,102.221245 751.279053,133.214233 750.756714,164.190277 
	C750.560120,175.848984 752.386169,186.950409 755.658264,197.920822 
	C756.997559,202.411285 755.280090,203.867722 751.323547,203.894577 
	C740.662720,203.966980 729.967224,204.385498 719.360779,203.621338 
	C716.245117,203.396896 712.411987,200.294495 710.597351,197.437775 
	C706.420349,190.861954 703.405029,183.560242 699.696594,176.672455 
	C689.910522,158.496796 680.016907,140.378967 670.126648,122.259651 
	C669.448120,121.016449 668.443420,119.951248 666.568420,117.427994 
	C665.563538,121.025642 664.407288,123.250221 664.403870,125.476570 
	C664.373657,145.291290 664.389038,165.109482 664.783081,184.918854 
	C664.870728,189.326279 666.303101,193.757782 667.485474,198.077179 
	C668.500488,201.785675 667.157471,203.785126 663.612854,203.829742 
	C652.288269,203.972260 640.958801,203.940018 629.634033,203.778870 
	C623.992676,203.698593 623.904053,199.726303 623.973206,195.369888 
	C624.496521,162.414444 624.883911,129.456863 625.313843,95.999939 
z"/>
<path fill="#39B773" opacity="1.000000" stroke="none" 
	d="
M1064.953247,104.031021 
	C1067.913086,90.777542 1070.283325,77.674583 1077.501831,66.419884 
	C1090.879272,45.562584 1109.996948,33.643852 1134.778076,30.818007 
	C1149.813965,29.103424 1164.287964,30.903154 1178.351440,36.412441 
	C1198.925781,44.472271 1212.023682,60.307625 1218.665649,80.256592 
	C1228.329956,109.283455 1227.430176,138.751282 1213.900513,166.753387 
	C1204.960693,185.256271 1190.685181,198.404541 1170.198364,203.331650 
	C1163.470215,204.949768 1156.389526,205.662155 1149.457520,205.745895 
	C1138.022461,205.884033 1126.590942,205.699875 1115.418701,202.151245 
	C1098.345093,196.728165 1085.361938,186.398941 1077.051880,170.682556 
	C1066.097778,149.965851 1062.297363,127.752663 1064.953247,104.031021 
M1147.134399,174.586334 
	C1165.911377,173.773422 1180.240234,156.922165 1184.002808,139.724640 
	C1186.883667,126.557007 1186.067261,113.319687 1184.280396,100.061409 
	C1181.970825,82.923920 1168.062622,67.665779 1151.219360,65.367218 
	C1133.539429,62.954472 1118.592896,67.514069 1109.754028,86.263329 
	C1100.650146,105.574776 1100.991089,125.217491 1106.529297,145.044495 
	C1111.680054,163.484528 1127.006104,174.471375 1147.134399,174.586334 
z"/>
<path fill="#39B774" opacity="1.000000" stroke="none" 
	d="
M298.846375,120.840195 
	C295.264099,126.495087 289.892242,129.110092 284.411316,131.673599 
	C277.336884,134.982407 276.739441,136.028412 279.182556,143.139877 
	C285.620300,161.878952 291.836823,180.741348 304.278809,196.695892 
	C305.545380,198.320068 306.129608,200.476379 307.098175,202.529251 
	C306.115021,203.084564 305.559235,203.673859 305.008179,203.669495 
	C290.868439,203.557541 276.729218,203.377258 262.589783,203.224472 
	C258.556030,203.180878 256.608582,200.900543 255.872620,197.180664 
	C250.802170,171.552109 239.880508,147.861649 231.321548,123.391014 
	C230.416397,120.803108 230.232590,116.519547 225.053711,118.361313 
	C224.932297,119.427299 224.716507,120.553436 224.688080,121.684273 
	C224.044235,147.311325 222.694504,172.962982 226.298248,198.485580 
	C226.816849,202.158432 225.326874,203.805954 222.299652,203.784271 
	C210.995392,203.703400 199.690598,203.366943 188.392410,202.951691 
	C184.637085,202.813675 182.650696,200.647690 182.980423,196.712662 
	C183.243164,193.577164 183.526962,190.442993 183.746674,187.304398 
	C184.267944,179.857880 185.153854,172.411041 185.190079,164.960892 
	C185.349686,132.135574 185.360901,99.308540 185.196609,66.483284 
	C185.150864,57.343815 184.373535,48.204983 183.820923,39.072571 
	C183.598770,35.401417 184.670944,33.689068 188.788956,33.732315 
	C210.779251,33.963284 232.796448,33.352230 254.755417,34.241261 
	C269.402588,34.834263 283.136414,39.468121 294.733032,49.244190 
	C314.527802,65.931389 315.894318,101.290527 301.192047,117.783920 
	C300.418701,118.651505 299.774658,119.634384 298.846375,120.840195 
M271.214752,96.431221 
	C271.722229,94.508804 272.395782,92.613075 272.709808,90.659554 
	C274.527374,79.353180 269.682983,70.799423 258.515320,68.693306 
	C249.506836,66.994377 240.095093,67.279587 230.853088,67.043114 
	C226.685226,66.936462 225.228928,70.124146 225.184204,73.786644 
	C225.062469,83.759071 224.980606,93.735016 225.122147,103.706169 
	C225.179764,107.766891 227.351273,110.270905 231.766296,109.995476 
	C239.551910,109.509781 247.338120,109.022034 255.116516,108.434914 
	C262.629242,107.867836 267.681580,103.745399 271.214752,96.431221 
z"/>
<path fill="#39B773" opacity="1.000000" stroke="none" 
	d="
M898.048645,84.129059 
	C904.957825,63.186123 916.954407,46.932575 937.443909,38.442543 
	C955.471741,30.972578 973.927734,30.429810 993.229126,34.310280 
	C1032.195801,42.144375 1050.409180,77.667244 1050.425171,106.537857 
	C1050.432861,120.513016 1052.022705,134.611008 1048.014648,148.237381 
	C1045.680298,156.173767 1042.613159,164.011963 1038.898071,171.402969 
	C1027.465210,194.148697 1006.415649,201.949585 983.200378,204.830399 
	C973.294067,206.059677 962.847961,205.400299 952.953491,203.755890 
	C931.940613,200.263641 914.851257,189.540115 903.868286,171.060974 
	C897.101196,159.675140 894.838928,146.494019 893.161255,133.377090 
	C891.029907,116.712814 893.343506,100.509064 898.048645,84.129059 
M937.237915,149.257843 
	C940.464233,154.262482 942.904907,160.070389 947.055359,164.130264 
	C963.473633,180.189667 994.455811,174.237244 1004.925049,153.251358 
	C1015.437012,132.179749 1014.198181,110.322685 1007.428833,88.704636 
	C1004.277100,78.639679 997.120728,71.067642 986.895142,66.817451 
	C969.272644,59.492798 947.944824,65.327332 939.877075,81.359985 
	C928.960205,103.054482 926.181702,125.658600 937.237915,149.257843 
z"/>
<path fill="#39B774" opacity="1.000000" stroke="none" 
	d="
M501.483948,49.456032 
	C527.469055,27.455444 556.621826,27.778992 586.642029,36.862972 
	C594.217651,39.155312 601.002136,44.295094 607.885742,48.553734 
	C611.978210,51.085617 611.348206,55.607552 610.418152,59.483086 
	C609.099915,64.976059 607.357666,70.390488 605.439209,75.709587 
	C603.572266,80.885941 601.202393,81.694176 596.849426,78.272995 
	C587.109009,70.617722 576.212219,66.361198 563.873413,65.356316 
	C547.279236,64.004845 532.358582,68.905159 520.850586,80.265961 
	C515.216980,85.827553 512.423828,94.822403 509.807404,102.746239 
	C506.388397,113.100792 508.173981,123.846626 510.370667,134.355743 
	C510.538666,135.159561 510.903229,135.938004 511.277679,136.676910 
	C511.490601,137.097183 511.909088,137.413315 512.898071,138.514740 
	C514.427124,133.849991 515.841064,129.713943 517.140198,125.542152 
	C522.440002,108.523254 534.161987,98.384598 551.255798,94.616447 
	C560.887024,92.493347 570.562378,93.036407 579.206116,98.627213 
	C581.050293,99.820061 583.285156,101.792953 583.619629,103.707100 
	C585.515076,114.553978 585.131104,125.457069 583.611023,137.256897 
	C579.349487,135.811859 575.713379,134.808273 572.259949,133.366928 
	C559.399658,127.999413 546.301453,128.169632 533.070190,131.498627 
	C530.839722,132.059845 528.654236,133.052780 526.643127,134.190994 
	C516.372803,140.003540 515.056702,150.872910 523.538208,159.123611 
	C542.179199,177.257324 573.115173,178.337250 594.038086,161.600662 
	C596.485535,159.642899 599.000305,157.769348 602.224487,155.286438 
	C603.662903,158.048325 605.134338,160.210480 605.956787,162.596359 
	C607.474548,166.999359 608.514526,171.564514 609.929565,176.006073 
	C612.134216,182.926437 610.001831,188.759415 603.928223,191.812531 
	C595.533325,196.032593 586.777039,200.620285 577.686951,202.152710 
	C556.395691,205.742020 534.830139,206.938446 514.842102,195.921982 
	C494.373627,184.640717 480.089783,168.436890 474.529144,145.122147 
	C468.876343,121.421059 469.213989,98.313156 480.144989,76.081314 
	C485.206390,65.787224 492.513367,57.146454 501.483948,49.456032 
z"/>
<path fill="#39B774" opacity="1.000000" stroke="none" 
	d="
M437.224518,102.116638 
	C437.574280,112.396515 437.950745,122.318626 437.862549,132.236603 
	C437.829651,135.936996 434.623718,135.836212 432.267487,134.765793 
	C420.610474,129.470108 408.238647,129.437912 395.949219,130.193542 
	C390.325256,130.539337 384.357391,132.142395 379.387512,134.768707 
	C370.580261,139.422882 369.414398,150.099091 375.742554,157.809860 
	C387.723511,172.408432 417.821686,180.454269 440.878296,166.325806 
	C444.567261,164.065308 448.124023,161.586380 451.709167,159.160065 
	C454.742371,157.107269 457.107361,157.525452 458.317657,161.108124 
	C460.335999,167.082962 462.674011,173.024170 463.850098,179.175934 
	C464.389038,181.994858 463.434082,186.227768 461.499237,188.158508 
	C457.349945,192.298950 452.614563,196.840851 447.256805,198.616821 
	C418.114044,208.277100 389.115417,209.640442 361.329742,193.755127 
	C343.805237,183.736221 334.187134,167.482803 328.164886,149.066437 
	C321.474152,128.605774 321.045868,107.543053 328.367676,87.293709 
	C337.740967,61.370781 355.837097,43.893379 382.750916,35.769634 
	C402.451782,29.823063 421.687317,32.059467 440.655792,38.001122 
	C447.148010,40.034737 453.020142,44.321690 458.830231,48.108921 
	C460.830200,49.412594 463.325806,52.657448 462.942444,54.447380 
	C461.299316,62.119125 458.971375,69.691353 456.250061,77.062477 
	C455.115143,80.136627 452.400421,78.522194 450.455536,77.050171 
	C441.668610,70.399590 432.002167,65.717621 420.972534,64.384888 
	C402.380737,62.138412 385.725525,67.066635 373.670410,81.420242 
	C363.058807,94.055092 360.474976,109.839104 362.436981,126.174629 
	C362.923462,130.225159 363.896210,134.217300 364.645416,138.236282 
	C365.162964,138.304550 365.680481,138.372818 366.197998,138.441071 
	C366.833221,136.975693 367.704132,135.566223 368.067169,134.036270 
	C371.634949,118.999107 378.632080,106.047173 392.672913,98.669563 
	C405.385406,91.989929 418.921326,91.933975 432.220642,97.612602 
	C434.085815,98.408997 435.463409,100.347427 437.224518,102.116638 
z"/>
<path fill="#39B773" opacity="1.000000" stroke="none" 
	d="
M154.878510,197.998901 
	C146.374695,200.242569 138.312180,203.254395 130.012268,204.215103 
	C113.265160,206.153625 96.420212,206.436127 80.099518,200.830414 
	C57.489685,193.064575 42.885647,177.217972 34.243259,155.340057 
	C26.000845,134.474670 24.990063,113.036240 31.200548,91.738846 
	C42.050293,54.532185 70.270889,32.962219 109.590630,31.616285 
	C128.946701,30.953716 146.908493,35.278511 163.081268,46.166286 
	C169.945877,50.787647 170.757996,53.087002 168.437744,60.817558 
	C166.812988,66.230797 165.098953,71.621681 163.248825,76.961594 
	C161.378983,82.358391 159.935196,82.780167 155.458145,79.313469 
	C148.062881,73.587105 140.698563,68.116608 131.014267,66.465034 
	C114.936653,63.723114 99.483513,65.454872 85.794701,74.188118 
	C73.867180,81.797676 67.487961,93.841789 66.020714,107.915634 
	C65.247475,115.332504 65.122452,122.976044 65.978775,130.369675 
	C67.620178,144.541916 74.765076,156.341568 85.636955,165.136871 
	C95.645935,173.234070 107.761856,176.378937 120.831558,174.960068 
	C128.648468,174.111465 130.042557,172.844040 130.099686,165.100342 
	C130.188171,153.106979 130.088837,141.112289 130.163498,129.118744 
	C130.208008,121.969002 131.637360,120.428993 138.923676,119.999138 
	C146.386841,119.558838 153.882050,118.976555 161.334427,119.247856 
	C167.701111,119.479645 168.906219,121.021805 168.943802,127.254555 
	C169.049255,144.743408 168.868546,162.233871 168.942764,179.723083 
	C168.983688,189.366592 161.723267,193.270386 154.878510,197.998901 
z"/>
<path fill="#39B773" opacity="1.000000" stroke="none" 
	d="
M1365.253296,81.774979 
	C1371.198242,106.017227 1363.785156,126.552094 1347.692871,143.591705 
	C1336.921387,154.997253 1322.640991,161.192307 1306.282227,159.828918 
	C1303.995483,159.638321 1300.969604,157.574463 1299.885742,155.529709 
	C1294.903320,146.130463 1290.520996,136.414551 1285.838623,126.853760 
	C1285.082886,125.310661 1283.899536,123.977020 1282.913940,122.546555 
	C1282.322876,122.583313 1281.731812,122.620079 1281.140869,122.656837 
	C1280.511841,126.575981 1279.286377,130.505539 1279.354492,134.412506 
	C1279.697510,154.047424 1280.229126,173.682327 1281.002441,193.305099 
	C1281.399902,203.391769 1281.174927,203.935699 1270.915405,203.945007 
	C1261.084106,203.953934 1251.251221,203.844360 1241.422241,203.995895 
	C1238.143311,204.046432 1236.742432,202.807281 1237.060913,199.625702 
	C1237.375366,196.484909 1237.903931,193.361725 1238.122314,190.215805 
	C1238.893188,179.116257 1240.116089,168.013443 1240.180420,156.906128 
	C1240.358887,126.084114 1240.201050,95.257164 1239.805054,64.436928 
	C1239.707153,56.829952 1238.340210,49.221306 1237.291382,41.650188 
	C1236.444946,35.539528 1237.767212,33.675064 1243.864258,33.674950 
	C1261.360718,33.674614 1278.857300,33.670261 1296.353394,33.768742 
	C1313.631836,33.865997 1329.454956,38.567562 1343.708984,48.570141 
	C1355.287720,56.695438 1363.276855,66.984581 1365.253296,81.774979 
M1295.076416,126.786392 
	C1302.227783,128.441513 1309.179810,128.747299 1315.867554,124.792435 
	C1325.536011,119.074799 1328.616455,109.807434 1329.600708,99.539062 
	C1331.113770,83.756195 1321.012207,69.229240 1306.917480,67.247322 
	C1300.191040,66.301506 1293.302124,66.241585 1286.488770,66.268524 
	C1280.986450,66.290276 1279.152222,68.450905 1279.101074,74.080414 
	C1279.011475,83.912903 1278.611084,93.774498 1279.198853,103.572441 
	C1279.814941,113.845993 1283.192017,122.897461 1295.076416,126.786392 
z"/>
<path fill="#39B773" opacity="1.000000" stroke="none" 
	d="
M811.921387,115.000000 
	C811.924011,131.823303 812.047058,148.148041 811.852905,164.469009 
	C811.799011,169.008453 813.027649,171.254562 817.937317,171.111908 
	C835.402832,170.604401 852.884766,170.521042 870.334900,169.720032 
	C874.486206,169.529480 878.653748,167.442520 882.600586,165.734863 
	C885.945312,164.287766 888.316406,165.144485 888.375244,168.445358 
	C888.561279,178.876999 888.303589,189.323792 887.864929,199.749863 
	C887.812134,201.003998 885.789673,202.599121 884.329285,203.255386 
	C882.754456,203.963135 880.767151,203.916580 878.959473,203.918411 
	C844.979919,203.952652 811.000366,203.963928 777.020874,203.908813 
	C774.455261,203.904663 771.890564,203.365891 769.000916,203.038910 
	C774.473022,181.907257 772.492249,161.030869 772.708801,140.299286 
	C772.985474,113.818176 773.011902,87.329025 772.647949,60.850185 
	C772.548645,53.622746 770.740540,46.406986 769.568481,39.209984 
	C768.692322,33.830029 769.188721,32.919220 774.618958,32.849331 
	C785.775452,32.705742 796.934998,32.812969 808.091858,32.687775 
	C812.712463,32.635925 814.680603,35.004837 813.974915,39.225273 
	C809.793640,64.231293 812.908997,89.419296 811.921387,115.000000 
z"/>
<path fill="#FEFEFE" opacity="1.000000" stroke="none" 
	d="
M1146.706787,174.602646 
	C1127.006104,174.471375 1111.680054,163.484528 1106.529297,145.044495 
	C1100.991089,125.217491 1100.650146,105.574776 1109.754028,86.263329 
	C1118.592896,67.514069 1133.539429,62.954472 1151.219360,65.367218 
	C1168.062622,67.665779 1181.970825,82.923920 1184.280396,100.061409 
	C1186.067261,113.319687 1186.883667,126.557007 1184.002808,139.724640 
	C1180.240234,156.922165 1165.911377,173.773422 1146.706787,174.602646 
z"/>
<path fill="#FCFEFD" opacity="1.000000" stroke="none" 
	d="
M271.072205,96.789825 
	C267.681580,103.745399 262.629242,107.867836 255.116516,108.434914 
	C247.338120,109.022034 239.551910,109.509781 231.766296,109.995476 
	C227.351273,110.270905 225.179764,107.766891 225.122147,103.706169 
	C224.980606,93.735016 225.062469,83.759071 225.184204,73.786644 
	C225.228928,70.124146 226.685226,66.936462 230.853088,67.043114 
	C240.095093,67.279587 249.506836,66.994377 258.515320,68.693306 
	C269.682983,70.799423 274.527374,79.353180 272.709808,90.659554 
	C272.395782,92.613075 271.722229,94.508804 271.072205,96.789825 
z"/>
<path fill="#FEFEFE" opacity="1.000000" stroke="none" 
	d="
M937.082764,148.915710 
	C926.181702,125.658600 928.960205,103.054482 939.877075,81.359985 
	C947.944824,65.327332 969.272644,59.492798 986.895142,66.817451 
	C997.120728,71.067642 1004.277100,78.639679 1007.428833,88.704636 
	C1014.198181,110.322685 1015.437012,132.179749 1004.925049,153.251358 
	C994.455811,174.237244 963.473633,180.189667 947.055359,164.130264 
	C942.904907,160.070389 940.464233,154.262482 937.082764,148.915710 
z"/>
<path fill="#FDFEFD" opacity="1.000000" stroke="none" 
	d="
M1294.689941,126.671066 
	C1283.192017,122.897461 1279.814941,113.845993 1279.198853,103.572441 
	C1278.611084,93.774498 1279.011475,83.912903 1279.101074,74.080414 
	C1279.152222,68.450905 1280.986450,66.290276 1286.488770,66.268524 
	C1293.302124,66.241585 1300.191040,66.301506 1306.917480,67.247322 
	C1321.012207,69.229240 1331.113770,83.756195 1329.600708,99.539062 
	C1328.616455,109.807434 1325.536011,119.074799 1315.867554,124.792435 
	C1309.179810,128.747299 1302.227783,128.441513 1294.689941,126.671066 
z"/>
</svg>